<svg xmlns="http://www.w3.org/2000/svg" viewBox="0 0 128 128">
  <defs>
    <linearGradient id="g" x1="0" y1="0" x2="1" y2="1">
      <stop offset="0%" stop-color="#3451b2"/>
      <stop offset="100%" stop-color="#7c3aed"/>
    </linearGradient>
  </defs>
  <rect x="6" y="6" width="116" height="116" rx="26" fill="url(#g)"/>
  <!-- double wiki-link brackets -->
  <path d="M40 38 H30 a4 4 0 0 0 -4 4 v44 a4 4 0 0 0 4 4 h10" fill="none" stroke="#fff" stroke-width="8" stroke-linecap="round"/>
  <path d="M56 38 H48 a4 4 0 0 0 -4 4 v44 a4 4 0 0 0 4 4 h8" fill="none" stroke="#fff" stroke-width="8" stroke-linecap="round" opacity="0.85"/>
  <path d="M88 38 h10 a4 4 0 0 1 4 4 v44 a4 4 0 0 1 -4 4 H88" fill="none" stroke="#fff" stroke-width="8" stroke-linecap="round"/>
  <path d="M72 38 h8 a4 4 0 0 1 4 4 v44 a4 4 0 0 1 -4 4 h-8" fill="none" stroke="#fff" stroke-width="8" stroke-linecap="round" opacity="0.85"/>
  <!-- the item: one memory dot -->
  <circle cx="64" cy="64" r="7" fill="#fff"/>
</svg>
